<svg width="114" height="32" viewBox="0 0 114 32" fill="none" xmlns="http://www.w3.org/2000/svg">
<path d="M42.3922 22.4094V10.8076H38.3678V8.66781H49.047V10.8076H45.0423V22.4094H42.3922ZM53.8534 22.645C52.8587 22.645 51.9753 22.4356 51.2032 22.0168C50.4441 21.5849 49.8487 20.9895 49.4168 20.2304C48.998 19.4713 48.7886 18.5945 48.7886 17.5999C48.7886 16.5791 48.998 15.676 49.4168 14.8908C49.8356 14.1056 50.4245 13.4905 51.1836 13.0455C51.9557 12.6005 52.8456 12.378 53.8534 12.378C54.8349 12.378 55.6921 12.594 56.425 13.0259C57.1579 13.4447 57.7272 14.0205 58.1329 14.7534C58.5517 15.4732 58.7611 16.2911 58.7611 17.2072C58.7611 17.3381 58.7611 17.4886 58.7611 17.6588C58.7611 17.8158 58.748 17.9794 58.7218 18.1495H50.6732V16.5398H56.0913C56.052 15.9247 55.823 15.4339 55.4042 15.0675C54.9985 14.701 54.4881 14.5178 53.873 14.5178C53.4149 14.5178 52.9962 14.6225 52.6166 14.8319C52.2371 15.0282 51.9361 15.3358 51.7136 15.7546C51.5042 16.1603 51.3995 16.6772 51.3995 17.3054V17.8747C51.3995 18.3982 51.4977 18.8562 51.694 19.2489C51.9034 19.6415 52.1913 19.949 52.5577 20.1715C52.9373 20.3809 53.3626 20.4856 53.8337 20.4856C54.318 20.4856 54.7171 20.3809 55.0312 20.1715C55.3584 19.9621 55.6071 19.6873 55.7772 19.347H58.4863C58.303 19.9621 57.9955 20.5183 57.5636 21.0156C57.1317 21.5129 56.6017 21.9121 55.9735 22.2131C55.3453 22.501 54.6386 22.645 53.8534 22.645ZM65.7018 22.645C64.7072 22.645 63.8238 22.4291 63.0517 21.9972C62.2795 21.5522 61.6775 20.9437 61.2456 20.1715C60.8137 19.3994 60.5978 18.516 60.5978 17.5213C60.5978 16.5136 60.8137 15.6237 61.2456 14.8515C61.6775 14.0794 62.2795 13.4774 63.0517 13.0455C63.8238 12.6005 64.7072 12.378 65.7018 12.378C66.9713 12.378 68.0314 12.7052 68.882 13.3596C69.7458 14.014 70.2955 14.9235 70.531 16.0883H67.7238C67.606 15.6302 67.3639 15.2769 66.9975 15.0282C66.631 14.7665 66.1926 14.6356 65.6822 14.6356C65.2241 14.6356 64.8119 14.7534 64.4455 14.989C64.0921 15.2114 63.8107 15.5386 63.6013 15.9705C63.3919 16.4024 63.2872 16.9128 63.2872 17.5017C63.2872 17.9467 63.3461 18.3524 63.4639 18.7188C63.5948 19.0722 63.7649 19.3732 63.9743 19.6218C64.1968 19.8705 64.452 20.0603 64.7399 20.1911C65.0278 20.322 65.3419 20.3874 65.6822 20.3874C66.0225 20.3874 66.33 20.3351 66.6048 20.2304C66.8797 20.1126 67.1152 19.9425 67.3116 19.72C67.5079 19.4975 67.6453 19.2358 67.7238 18.9348H70.531C70.2955 20.0603 69.7458 20.9633 68.882 21.6438C68.0183 22.3113 66.9582 22.645 65.7018 22.645ZM72.7781 22.4094V8.27519H75.4283V14.0663C75.7555 13.5559 76.1939 13.1502 76.7436 12.8492C77.2932 12.5351 77.928 12.378 78.6478 12.378C79.4592 12.378 80.1463 12.5482 80.709 12.8884C81.2718 13.2287 81.6971 13.7326 81.985 14.4C82.286 15.0675 82.4365 15.8854 82.4365 16.8539V22.4094H79.806V17.0895C79.806 16.2911 79.6424 15.676 79.3152 15.2442C78.988 14.8123 78.4711 14.5963 77.7644 14.5963C77.3325 14.5963 76.9333 14.7076 76.5669 14.9301C76.2135 15.1395 75.9322 15.447 75.7228 15.8527C75.5265 16.2453 75.4283 16.723 75.4283 17.2858V22.4094H72.7781ZM84.8557 22.4094V8.27519H87.5059V22.4094H84.8557ZM90.1487 22.4094V12.6136H92.7989V22.4094H90.1487ZM91.4836 11.2198C90.9994 11.2198 90.6068 11.0759 90.3058 10.7879C90.0047 10.5 89.8542 10.1467 89.8542 9.72788C89.8542 9.296 90.0047 8.94264 90.3058 8.66781C90.6068 8.37989 90.9994 8.23593 91.4836 8.23593C91.9678 8.23593 92.3605 8.37989 92.6615 8.66781C92.9756 8.94264 93.1326 9.296 93.1326 9.72788C93.1326 10.1467 92.9756 10.5 92.6615 10.7879C92.3605 11.0759 91.9678 11.2198 91.4836 11.2198ZM95.8895 22.4094V11.6321C95.8895 10.8076 96.0269 10.1532 96.3018 9.66898C96.5766 9.18476 96.9692 8.8314 97.4796 8.60892C97.99 8.38643 98.592 8.27519 99.2857 8.27519H100.444V10.5327H99.6979C99.2791 10.5327 98.9781 10.6178 98.7949 10.7879C98.6247 10.945 98.5397 11.2264 98.5397 11.6321V22.4094H95.8895ZM94.5546 14.8123V12.6136H100.621V14.8123H94.5546ZM103.903 26.7282L106.317 21.3101H105.728L101.743 12.6136H104.629L107.475 18.8955L110.027 12.6136H112.854L106.71 26.7282H103.903Z" fill="#3B82F6"/>
<path d="M16.8223 4.55331C16.8223 3.01724 18.6903 2.26018 19.7597 3.36286L29.6135 13.5233C30.2624 14.1924 30.6253 15.0879 30.6253 16.0201V27.7807C30.6253 29.3167 28.7573 30.0738 27.6879 28.9711L17.8341 18.8107C17.1852 18.1416 16.8223 17.246 16.8223 16.3139V4.55331Z" fill="#60A5FA"/>
<path d="M8.26758 4.21932C8.26758 2.68326 10.1356 1.92619 11.205 3.02887L20.9134 13.0393C21.6556 13.8046 22.0707 14.8289 22.0707 15.895V27.4467C22.0707 28.9828 20.2026 29.7398 19.1332 28.6371L9.27946 18.4767C8.6305 17.8076 8.26758 16.9121 8.26758 15.9799V4.21932Z" fill="#2563EB"/>
<path d="M0 4.55331C0 3.01724 1.86806 2.26018 2.93745 3.36286L12.7912 13.5233C13.4401 14.1924 13.8031 15.0879 13.8031 16.0201V27.7807C13.8031 29.3167 11.935 30.0738 10.8656 28.9711L1.01188 18.8107C0.362926 18.1416 0 17.246 0 16.3139V4.55331Z" fill="#1E40AF"/>
</svg>
