<svg width="17" height="16" viewBox="0 0 17 16" fill="none" xmlns="http://www.w3.org/2000/svg">
<g clip-path="url(#clip0_40000045_2212)">
<path d="M14.6163 6.42625C14.3806 6.18 14.1369 5.92625 14.045 5.70312C13.96 5.49875 13.955 5.16 13.95 4.83187C13.9406 4.22187 13.9306 3.53062 13.45 3.05C12.9694 2.56937 12.2781 2.55937 11.6681 2.55C11.34 2.545 11.0012 2.54 10.7969 2.455C10.5744 2.36312 10.32 2.11937 10.0737 1.88375C9.6425 1.46937 9.1525 1 8.5 1C7.8475 1 7.35812 1.46937 6.92625 1.88375C6.68 2.11937 6.42625 2.36312 6.20312 2.455C6 2.54 5.66 2.545 5.33187 2.55C4.72187 2.55937 4.03062 2.56937 3.55 3.05C3.06937 3.53062 3.0625 4.22187 3.05 4.83187C3.045 5.16 3.04 5.49875 2.955 5.70312C2.86312 5.92562 2.61937 6.18 2.38375 6.42625C1.96937 6.8575 1.5 7.3475 1.5 8C1.5 8.6525 1.96937 9.14187 2.38375 9.57375C2.61937 9.82 2.86312 10.0738 2.955 10.2969C3.04 10.5012 3.045 10.84 3.05 11.1681C3.05937 11.7781 3.06937 12.4694 3.55 12.95C4.03062 13.4306 4.72187 13.4406 5.33187 13.45C5.66 13.455 5.99875 13.46 6.20312 13.545C6.42562 13.6369 6.68 13.8806 6.92625 14.1163C7.3575 14.5306 7.8475 15 8.5 15C9.1525 15 9.64187 14.5306 10.0737 14.1163C10.32 13.8806 10.5738 13.6369 10.7969 13.545C11.0012 13.46 11.34 13.455 11.6681 13.45C12.2781 13.4406 12.9694 13.4306 13.45 12.95C13.9306 12.4694 13.9406 11.7781 13.95 11.1681C13.955 10.84 13.96 10.5012 14.045 10.2969C14.1369 10.0744 14.3806 9.82 14.6163 9.57375C15.0306 9.1425 15.5 8.6525 15.5 8C15.5 7.3475 15.0306 6.85812 14.6163 6.42625ZM11.3538 6.85375L7.85375 10.3538C7.80731 10.4002 7.75217 10.4371 7.69147 10.4623C7.63077 10.4874 7.56571 10.5004 7.5 10.5004C7.43429 10.5004 7.36923 10.4874 7.30853 10.4623C7.24783 10.4371 7.19269 10.4002 7.14625 10.3538L5.64625 8.85375C5.55243 8.75993 5.49972 8.63268 5.49972 8.5C5.49972 8.36732 5.55243 8.24007 5.64625 8.14625C5.74007 8.05243 5.86732 7.99972 6 7.99972C6.13268 7.99972 6.25993 8.05243 6.35375 8.14625L7.5 9.29313L10.6462 6.14625C10.6927 6.09979 10.7479 6.06294 10.8086 6.0378C10.8692 6.01266 10.9343 5.99972 11 5.99972C11.0657 5.99972 11.1308 6.01266 11.1914 6.0378C11.2521 6.06294 11.3073 6.09979 11.3538 6.14625C11.4002 6.1927 11.4371 6.24786 11.4622 6.30855C11.4873 6.36925 11.5003 6.4343 11.5003 6.5C11.5003 6.5657 11.4873 6.63075 11.4622 6.69145C11.4371 6.75214 11.4002 6.8073 11.3538 6.85375Z" fill="#60A5FA"/>
</g>
<defs>
<clipPath id="clip0_40000045_2212">
<rect width="16" height="16" fill="white" transform="translate(0.5)"/>
</clipPath>
</defs>
</svg>
